<mxfile host="app.diagrams.net" modified="2023-05-18T04:21:20.644Z" agent="Mozilla/5.0 (X11; Linux x86_64) AppleWebKit/537.36 (KHTML, like Gecko) Chrome/113.0.0.0 Safari/537.36" etag="ASU6tWqO0EOk-hPo9ztP" version="21.3.2" type="github">
  <diagram name="Page-1" id="cr3HO4S1H_uL7NqfTkJo">
    <mxGraphModel dx="1434" dy="800" grid="1" gridSize="10" guides="1" tooltips="1" connect="1" arrows="1" fold="1" page="1" pageScale="1" pageWidth="850" pageHeight="1100" math="0" shadow="0">
      <root>
        <mxCell id="0" />
        <mxCell id="1" parent="0" />
        <mxCell id="wCMBV2gQjTfYBjoTKOj2-2" value="Файл&lt;br&gt;эзэмшигч" style="shape=umlActor;verticalLabelPosition=bottom;verticalAlign=top;html=1;outlineConnect=0;" vertex="1" parent="1">
          <mxGeometry x="160" y="320" width="30" height="60" as="geometry" />
        </mxCell>
        <mxCell id="wCMBV2gQjTfYBjoTKOj2-3" value="Файл&lt;br&gt;хэрэглэгч" style="shape=umlActor;verticalLabelPosition=bottom;verticalAlign=top;html=1;outlineConnect=0;" vertex="1" parent="1">
          <mxGeometry x="610" y="320" width="30" height="60" as="geometry" />
        </mxCell>
        <mxCell id="wCMBV2gQjTfYBjoTKOj2-5" value="Системийн дээрх үйл ажилгаа&amp;nbsp;" style="swimlane;whiteSpace=wrap;html=1;" vertex="1" parent="1">
          <mxGeometry x="240" y="160" width="320" height="390" as="geometry" />
        </mxCell>
        <mxCell id="wCMBV2gQjTfYBjoTKOj2-10" value="&lt;font style=&quot;font-size: 10px;&quot;&gt;Шифрлсэн файл&amp;nbsp; байршуулах&lt;/font&gt;" style="ellipse;whiteSpace=wrap;html=1;" vertex="1" parent="wCMBV2gQjTfYBjoTKOj2-5">
          <mxGeometry x="20" y="240" width="100" height="40" as="geometry" />
        </mxCell>
        <mxCell id="wCMBV2gQjTfYBjoTKOj2-11" value="&lt;font style=&quot;font-size: 12px;&quot;&gt;Нэврэх&lt;/font&gt;" style="ellipse;whiteSpace=wrap;html=1;" vertex="1" parent="wCMBV2gQjTfYBjoTKOj2-5">
          <mxGeometry x="100" y="50" width="100" height="40" as="geometry" />
        </mxCell>
        <mxCell id="wCMBV2gQjTfYBjoTKOj2-13" value="Бүртгүүлэх" style="ellipse;whiteSpace=wrap;html=1;" vertex="1" parent="wCMBV2gQjTfYBjoTKOj2-5">
          <mxGeometry x="100" y="100" width="100" height="40" as="geometry" />
        </mxCell>
        <mxCell id="wCMBV2gQjTfYBjoTKOj2-14" value="Файл шифрлэх" style="ellipse;whiteSpace=wrap;html=1;" vertex="1" parent="wCMBV2gQjTfYBjoTKOj2-5">
          <mxGeometry x="20" y="160" width="100" height="40" as="geometry" />
        </mxCell>
        <mxCell id="wCMBV2gQjTfYBjoTKOj2-15" value="&lt;font style=&quot;font-size: 10px;&quot;&gt;Файлын түлхүүрийг дахин шифрлэх&lt;/font&gt;" style="ellipse;whiteSpace=wrap;html=1;" vertex="1" parent="wCMBV2gQjTfYBjoTKOj2-5">
          <mxGeometry x="20" y="320" width="100" height="40" as="geometry" />
        </mxCell>
        <mxCell id="wCMBV2gQjTfYBjoTKOj2-16" value="&lt;font style=&quot;font-size: 11px;&quot;&gt;Өөрт хуваалцсан файлыг татах&lt;/font&gt;" style="ellipse;whiteSpace=wrap;html=1;" vertex="1" parent="wCMBV2gQjTfYBjoTKOj2-5">
          <mxGeometry x="200" y="160" width="100" height="40" as="geometry" />
        </mxCell>
        <mxCell id="wCMBV2gQjTfYBjoTKOj2-17" value="&lt;font style=&quot;font-size: 11px;&quot;&gt;Шифр файлыг тайлах&lt;/font&gt;" style="ellipse;whiteSpace=wrap;html=1;" vertex="1" parent="wCMBV2gQjTfYBjoTKOj2-5">
          <mxGeometry x="200" y="240" width="100" height="40" as="geometry" />
        </mxCell>
        <mxCell id="wCMBV2gQjTfYBjoTKOj2-18" value="" style="endArrow=none;html=1;rounded=0;exitX=1;exitY=0.3333333333333333;exitDx=0;exitDy=0;exitPerimeter=0;entryX=0;entryY=0.5;entryDx=0;entryDy=0;" edge="1" parent="1" source="wCMBV2gQjTfYBjoTKOj2-2" target="wCMBV2gQjTfYBjoTKOj2-11">
          <mxGeometry width="50" height="50" relative="1" as="geometry">
            <mxPoint x="440" y="430" as="sourcePoint" />
            <mxPoint x="490" y="380" as="targetPoint" />
            <Array as="points">
              <mxPoint x="190" y="230" />
            </Array>
          </mxGeometry>
        </mxCell>
        <mxCell id="wCMBV2gQjTfYBjoTKOj2-19" value="" style="endArrow=none;html=1;rounded=0;entryX=0;entryY=0.5;entryDx=0;entryDy=0;" edge="1" parent="1" target="wCMBV2gQjTfYBjoTKOj2-13">
          <mxGeometry width="50" height="50" relative="1" as="geometry">
            <mxPoint x="190" y="340" as="sourcePoint" />
            <mxPoint x="490" y="380" as="targetPoint" />
            <Array as="points">
              <mxPoint x="190" y="280" />
            </Array>
          </mxGeometry>
        </mxCell>
        <mxCell id="wCMBV2gQjTfYBjoTKOj2-20" value="" style="endArrow=none;html=1;rounded=0;entryX=0;entryY=0.5;entryDx=0;entryDy=0;exitX=1;exitY=0.3333333333333333;exitDx=0;exitDy=0;exitPerimeter=0;" edge="1" parent="1" source="wCMBV2gQjTfYBjoTKOj2-2" target="wCMBV2gQjTfYBjoTKOj2-14">
          <mxGeometry width="50" height="50" relative="1" as="geometry">
            <mxPoint x="440" y="430" as="sourcePoint" />
            <mxPoint x="490" y="380" as="targetPoint" />
          </mxGeometry>
        </mxCell>
        <mxCell id="wCMBV2gQjTfYBjoTKOj2-21" value="" style="endArrow=none;html=1;rounded=0;entryX=0;entryY=0.5;entryDx=0;entryDy=0;exitX=1;exitY=0.3333333333333333;exitDx=0;exitDy=0;exitPerimeter=0;" edge="1" parent="1" source="wCMBV2gQjTfYBjoTKOj2-2" target="wCMBV2gQjTfYBjoTKOj2-15">
          <mxGeometry width="50" height="50" relative="1" as="geometry">
            <mxPoint x="440" y="430" as="sourcePoint" />
            <mxPoint x="490" y="380" as="targetPoint" />
            <Array as="points">
              <mxPoint x="190" y="500" />
            </Array>
          </mxGeometry>
        </mxCell>
        <mxCell id="wCMBV2gQjTfYBjoTKOj2-22" value="" style="endArrow=none;html=1;rounded=0;entryX=0;entryY=0.5;entryDx=0;entryDy=0;" edge="1" parent="1" target="wCMBV2gQjTfYBjoTKOj2-10">
          <mxGeometry width="50" height="50" relative="1" as="geometry">
            <mxPoint x="190" y="420" as="sourcePoint" />
            <mxPoint x="490" y="380" as="targetPoint" />
          </mxGeometry>
        </mxCell>
        <mxCell id="wCMBV2gQjTfYBjoTKOj2-23" value="" style="endArrow=none;html=1;rounded=0;entryX=1;entryY=0.5;entryDx=0;entryDy=0;exitX=0;exitY=0.3333333333333333;exitDx=0;exitDy=0;exitPerimeter=0;" edge="1" parent="1" source="wCMBV2gQjTfYBjoTKOj2-3" target="wCMBV2gQjTfYBjoTKOj2-11">
          <mxGeometry width="50" height="50" relative="1" as="geometry">
            <mxPoint x="440" y="430" as="sourcePoint" />
            <mxPoint x="490" y="380" as="targetPoint" />
            <Array as="points">
              <mxPoint x="610" y="230" />
            </Array>
          </mxGeometry>
        </mxCell>
        <mxCell id="wCMBV2gQjTfYBjoTKOj2-24" value="" style="endArrow=none;html=1;rounded=0;entryX=1;entryY=0.5;entryDx=0;entryDy=0;" edge="1" parent="1" target="wCMBV2gQjTfYBjoTKOj2-13">
          <mxGeometry width="50" height="50" relative="1" as="geometry">
            <mxPoint x="610" y="280" as="sourcePoint" />
            <mxPoint x="490" y="380" as="targetPoint" />
          </mxGeometry>
        </mxCell>
        <mxCell id="wCMBV2gQjTfYBjoTKOj2-25" value="" style="endArrow=none;html=1;rounded=0;entryX=1;entryY=0.5;entryDx=0;entryDy=0;exitX=0;exitY=0.3333333333333333;exitDx=0;exitDy=0;exitPerimeter=0;" edge="1" parent="1" source="wCMBV2gQjTfYBjoTKOj2-3" target="wCMBV2gQjTfYBjoTKOj2-16">
          <mxGeometry width="50" height="50" relative="1" as="geometry">
            <mxPoint x="440" y="430" as="sourcePoint" />
            <mxPoint x="490" y="380" as="targetPoint" />
          </mxGeometry>
        </mxCell>
        <mxCell id="wCMBV2gQjTfYBjoTKOj2-27" value="" style="endArrow=none;html=1;rounded=0;entryX=1;entryY=0.5;entryDx=0;entryDy=0;exitX=0;exitY=0.3333333333333333;exitDx=0;exitDy=0;exitPerimeter=0;" edge="1" parent="1" source="wCMBV2gQjTfYBjoTKOj2-3" target="wCMBV2gQjTfYBjoTKOj2-17">
          <mxGeometry width="50" height="50" relative="1" as="geometry">
            <mxPoint x="440" y="430" as="sourcePoint" />
            <mxPoint x="490" y="380" as="targetPoint" />
            <Array as="points">
              <mxPoint x="610" y="420" />
            </Array>
          </mxGeometry>
        </mxCell>
      </root>
    </mxGraphModel>
  </diagram>
</mxfile>
